<?xml version="1.0" encoding="UTF-8"?>
<svg width="1366px" height="768px" viewBox="0 0 1366 768" version="1.1" xmlns="http://www.w3.org/2000/svg" xmlns:xlink="http://www.w3.org/1999/xlink">
    <g id="bg-finalfinal" stroke="none" stroke-width="1" fill="none" fill-rule="evenodd">
        <rect fill="#FFFFFF" x="0" y="0" width="1366" height="768"></rect>
        <path d="M551.135813,768 L0,768 L0,0 L666.366201,0 C644.808946,43.0149676 625.494945,87.9208488 608.643197,134.614814 C533.08002,344.010821 516.852756,562.136965 551.135813,768 Z" id="Path" fill="#1644F9"></path>
        <path d="M1366,67.9384725 C1102.10134,193.017764 883.755572,426.32065 774.686727,737.079235 C771.076544,747.36766 767.609688,757.675392 764.285003,768 L522.592314,768 C474.05249,544.929731 485.492537,304.6007 568.644012,74.8041198 C577.859348,49.3324876 587.809486,24.3921628 598.458769,1.77635684e-14 L1366,0 L1366,67.9384725 L1366,67.9384725 Z" id="Path" fill="#1C2154"></path>
        <path d="M1366.31694,67.4060536 L1366.31694,768 L764.316936,768 C767.61221,757.778836 771.046112,747.574413 774.619668,737.389114 C883.762528,426.343584 1102.25026,192.693428 1366.31694,67.4060536 Z" id="Path" fill="#19AFF9"></path>
    </g>
</svg>
